<svg width="2352" height="931" viewBox="0 0 2352 931" fill="none" xmlns="http://www.w3.org/2000/svg">
<circle cx="3" cy="928" r="3" fill="#D9D9D9"/>
<circle cx="171" cy="861" r="3" fill="#D9D9D9"/>
<circle cx="365" cy="922" r="3" fill="#D9D9D9"/>
<circle cx="501" cy="491" r="3" fill="#D9D9D9"/>
<circle cx="2271" cy="72" r="3" fill="#D9D9D9"/>
<circle cx="1890" cy="320" r="3" fill="#D9D9D9"/>
<circle cx="1806" cy="537" r="3" fill="#D9D9D9"/>
<circle cx="1202" cy="453" r="3" fill="#D9D9D9"/>
<circle cx="96" cy="46" r="3" fill="#D9D9D9"/>
<circle cx="246" cy="369" r="3" fill="#D9D9D9"/>
<circle cx="785" cy="173" r="3" fill="#D9D9D9"/>
<circle cx="1531" cy="129" r="3" fill="#D9D9D9"/>
<circle cx="2120" cy="232" r="3" fill="#D9D9D9"/>
<circle cx="815" cy="543" r="3" fill="#D9D9D9"/>
<circle cx="2349" cy="639" r="3" fill="#D9D9D9"/>
<circle cx="1089" cy="3" r="3" fill="#D9D9D9"/>
<circle cx="779" cy="888" r="3" fill="#D9D9D9"/>
<circle cx="959" cy="798" r="3" fill="#D9D9D9"/>
<circle cx="1130" cy="916" r="3" fill="#D9D9D9"/>
<circle cx="1316" cy="761" r="3" fill="#D9D9D9"/>
<circle cx="1735" cy="894" r="3" fill="#D9D9D9"/>
<circle cx="1958" cy="826" r="3" fill="#D9D9D9"/>
<circle cx="2158" cy="925" r="3" fill="#D9D9D9"/>
</svg>
