<svg width="2255" height="862" viewBox="0 0 2255 862" fill="none" xmlns="http://www.w3.org/2000/svg">
<path d="M1380 365L1381.12 368.455H1384.76L1381.82 370.59L1382.94 374.045L1380 371.91L1377.06 374.045L1378.18 370.59L1375.24 368.455H1378.88L1380 365Z" fill="#FCF9BF"/>
<path d="M1809.5 0L1811.18 5.18237H1816.63L1812.22 8.38525L1813.91 13.5676L1809.5 10.3647L1805.09 13.5676L1806.78 8.38525L1802.37 5.18237H1807.82L1809.5 0Z" fill="#FCF9BF"/>
<path d="M2137 317L2138.12 320.455H2141.76L2138.82 322.59L2139.94 326.045L2137 323.91L2134.06 326.045L2135.18 322.59L2132.24 320.455H2135.88L2137 317Z" fill="#FCF9BF"/>
<path d="M844.5 41L846.184 46.1824H851.633L847.225 49.3853L848.908 54.5676L844.5 51.3647L840.092 54.5676L841.775 49.3853L837.367 46.1824H842.816L844.5 41Z" fill="#FCF9BF"/>
<path d="M1658.5 314L1660.18 319.182H1665.63L1661.22 322.385L1662.91 327.568L1658.5 324.365L1654.09 327.568L1655.78 322.385L1651.37 319.182H1656.82L1658.5 314Z" fill="#FCF9BF"/>
<path d="M829.5 357L831.184 362.182H836.633L832.225 365.385L833.908 370.568L829.5 367.365L825.092 370.568L826.775 365.385L822.367 362.182H827.816L829.5 357Z" fill="#FCF9BF"/>
<path d="M226.5 436L228.184 441.182H233.633L229.225 444.385L230.908 449.568L226.5 446.365L222.092 449.568L223.775 444.385L219.367 441.182H224.816L226.5 436Z" fill="#FCF9BF"/>
<path d="M2250 20L2251.12 23.4549H2254.76L2251.82 25.5902L2252.94 29.0451L2250 26.9098L2247.06 29.0451L2248.18 25.5902L2245.24 23.4549H2248.88L2250 20Z" fill="#FCF9BF"/>
<path d="M1752 832L1753.12 835.455H1756.76L1753.82 837.59L1754.94 841.045L1752 838.91L1749.06 841.045L1750.18 837.59L1747.24 835.455H1750.88L1752 832Z" fill="#FCF9BF"/>
<path d="M1297 842L1298.12 845.455H1301.76L1298.82 847.59L1299.94 851.045L1297 848.91L1294.06 851.045L1295.18 847.59L1292.24 845.455H1295.88L1297 842Z" fill="#FCF9BF"/>
<path d="M909 593L910.123 596.455H913.755L910.816 598.59L911.939 602.045L909 599.91L906.061 602.045L907.184 598.59L904.245 596.455H907.877L909 593Z" fill="#FCF9BF"/>
<path d="M919 847L920.123 850.455H923.755L920.816 852.59L921.939 856.045L919 853.91L916.061 856.045L917.184 852.59L914.245 850.455H917.877L919 847Z" fill="#FCF9BF"/>
<path d="M634 569L635.123 572.455H638.755L635.816 574.59L636.939 578.045L634 575.91L631.061 578.045L632.184 574.59L629.245 572.455H632.877L634 569Z" fill="#FCF9BF"/>
<path d="M229 108L230.123 111.455H233.755L230.816 113.59L231.939 117.045L229 114.91L226.061 117.045L227.184 113.59L224.245 111.455H227.877L229 108Z" fill="#FCF9BF"/>
<path d="M386 748L387.123 751.455H390.755L387.816 753.59L388.939 757.045L386 754.91L383.061 757.045L384.184 753.59L381.245 751.455H384.877L386 748Z" fill="#FCF9BF"/>
<path d="M5 190L6.12257 193.455H9.75528L6.81636 195.59L7.93893 199.045L5 196.91L2.06107 199.045L3.18364 195.59L0.244718 193.455H3.87743L5 190Z" fill="#FCF9BF"/>
<path d="M1990 795L1991.12 798.455H1994.76L1991.82 800.59L1992.94 804.045L1990 801.91L1987.06 804.045L1988.18 800.59L1985.24 798.455H1988.88L1990 795Z" fill="#FCF9BF"/>
<path d="M1869 525L1870.12 528.455H1873.76L1870.82 530.59L1871.94 534.045L1869 531.91L1866.06 534.045L1867.18 530.59L1864.24 528.455H1867.88L1869 525Z" fill="#FCF9BF"/>
<path d="M1390 603L1391.12 606.455H1394.76L1391.82 608.59L1392.94 612.045L1390 609.91L1387.06 612.045L1388.18 608.59L1385.24 606.455H1388.88L1390 603Z" fill="#FCF9BF"/>
<path d="M572 852L573.123 855.455H576.755L573.816 857.59L574.939 861.045L572 858.91L569.061 861.045L570.184 857.59L567.245 855.455H570.877L572 852Z" fill="#FCF9BF"/>
<path d="M1127 681L1128.12 684.455H1131.76L1128.82 686.59L1129.94 690.045L1127 687.91L1124.06 690.045L1125.18 686.59L1122.24 684.455H1125.88L1127 681Z" fill="#FCF9BF"/>
<path d="M1410 10L1411.12 13.4549H1414.76L1411.82 15.5902L1412.94 19.0451L1410 16.9098L1407.06 19.0451L1408.18 15.5902L1405.24 13.4549H1408.88L1410 10Z" fill="#FCF9BF"/>
<path d="M624 200L625.123 203.455H628.755L625.816 205.59L626.939 209.045L624 206.91L621.061 209.045L622.184 205.59L619.245 203.455H622.877L624 200Z" fill="#FCF9BF"/>
<path d="M78 748L79.1226 751.455H82.7553L79.8164 753.59L80.9389 757.045L78 754.91L75.0611 757.045L76.1836 753.59L73.2447 751.455H76.8774L78 748Z" fill="#FCF9BF"/>
<path d="M1229 441L1230.12 444.455H1233.76L1230.82 446.59L1231.94 450.045L1229 447.91L1226.06 450.045L1227.18 446.59L1224.24 444.455H1227.88L1229 441Z" fill="#FCF9BF"/>
<path d="M1153 64L1154.12 67.4549H1157.76L1154.82 69.5902L1155.94 73.0451L1153 70.9098L1150.06 73.0451L1151.18 69.5902L1148.24 67.4549H1151.88L1153 64Z" fill="#FCF9BF"/>
</svg>
