<svg width="2255" height="862" viewBox="0 0 2255 862" fill="none" xmlns="http://www.w3.org/2000/svg">
<path d="M1380 497L1381.12 493.545L1384.75 493.545L1381.82 491.41L1382.94 487.955L1380 490.09L1377.06 487.955L1378.18 491.41L1375.24 493.545L1378.88 493.545L1380 497Z" fill="#FCF9BF"/>
<path d="M1809.5 862L1811.18 856.818L1816.63 856.818L1812.22 853.615L1813.91 848.433L1809.5 851.635L1805.09 848.433L1806.78 853.615L1802.37 856.818L1807.82 856.818L1809.5 862Z" fill="#FCF9BF"/>
<path d="M2137 545L2138.12 541.545L2141.76 541.545L2138.82 539.41L2139.94 535.955L2137 538.09L2134.06 535.955L2135.18 539.41L2132.24 541.545L2135.88 541.545L2137 545Z" fill="#FCF9BF"/>
<path d="M844.5 821L846.184 815.818L851.633 815.818L847.225 812.615L848.909 807.433L844.5 810.635L840.092 807.433L841.776 812.615L837.367 815.818L842.816 815.818L844.5 821Z" fill="#FCF9BF"/>
<path d="M1658.5 548L1660.18 542.818L1665.63 542.818L1661.23 539.615L1662.91 534.433L1658.5 537.636L1654.09 534.433L1655.78 539.615L1651.37 542.818L1656.82 542.818L1658.5 548Z" fill="#FCF9BF"/>
<path d="M829.5 505L831.184 499.818L836.633 499.818L832.225 496.615L833.909 491.433L829.5 494.635L825.092 491.433L826.776 496.615L822.368 499.818L827.817 499.818L829.5 505Z" fill="#FCF9BF"/>
<path d="M226.5 426L228.184 420.818L233.633 420.818L229.225 417.615L230.909 412.433L226.5 415.635L222.092 412.433L223.776 417.615L219.368 420.818L224.817 420.818L226.5 426Z" fill="#FCF9BF"/>
<path d="M2250 842L2251.12 838.545L2254.75 838.545L2251.82 836.41L2252.94 832.955L2250 835.091L2247.06 832.955L2248.18 836.41L2245.24 838.545L2248.88 838.545L2250 842Z" fill="#FCF9BF"/>
<path d="M1752 30.0003L1753.12 26.5454L1756.76 26.5454L1753.82 24.4101L1754.94 20.9552L1752 23.0904L1749.06 20.9552L1750.18 24.4101L1747.24 26.5454L1750.88 26.5454L1752 30.0003Z" fill="#FCF9BF"/>
<path d="M1297 20.0002L1298.12 16.5453L1301.76 16.5453L1298.82 14.4101L1299.94 10.9552L1297 13.0904L1294.06 10.9552L1295.18 14.4101L1292.24 16.5453L1295.88 16.5453L1297 20.0002Z" fill="#FCF9BF"/>
<path d="M909 269L910.123 265.545L913.755 265.545L910.816 263.41L911.939 259.955L909 262.09L906.061 259.955L907.184 263.41L904.245 265.545L907.877 265.545L909 269Z" fill="#FCF9BF"/>
<path d="M919 15.0002L920.123 11.5453L923.756 11.5453L920.817 9.41004L921.939 5.95513L919 8.09038L916.061 5.95513L917.184 9.41004L914.245 11.5453L917.878 11.5453L919 15.0002Z" fill="#FCF9BF"/>
<path d="M634 293L635.123 289.545L638.756 289.545L635.817 287.41L636.939 283.955L634 286.09L631.061 283.955L632.184 287.41L629.245 289.545L632.878 289.545L634 293Z" fill="#FCF9BF"/>
<path d="M229 754L230.123 750.545L233.755 750.545L230.816 748.41L231.939 744.955L229 747.09L226.061 744.955L227.184 748.41L224.245 750.545L227.877 750.545L229 754Z" fill="#FCF9BF"/>
<path d="M386 114L387.123 110.545L390.756 110.545L387.817 108.41L388.939 104.955L386 107.09L383.062 104.955L384.184 108.41L381.245 110.545L384.878 110.545L386 114Z" fill="#FCF9BF"/>
<path d="M5 672L6.12257 668.545L9.75528 668.545L6.81636 666.41L7.93893 662.955L5 665.09L2.06107 662.955L3.18364 666.41L0.244718 668.545L3.87743 668.545L5 672Z" fill="#FCF9BF"/>
<path d="M1990 67.0003L1991.12 63.5454L1994.75 63.5454L1991.82 61.4101L1992.94 57.9552L1990 60.0905L1987.06 57.9552L1988.18 61.4101L1985.24 63.5454L1988.88 63.5454L1990 67.0003Z" fill="#FCF9BF"/>
<path d="M1869 337L1870.12 333.545L1873.76 333.545L1870.82 331.41L1871.94 327.955L1869 330.09L1866.06 327.955L1867.18 331.41L1864.24 333.545L1867.88 333.545L1869 337Z" fill="#FCF9BF"/>
<path d="M1390 259L1391.12 255.545L1394.76 255.545L1391.82 253.41L1392.94 249.955L1390 252.09L1387.06 249.955L1388.18 253.41L1385.24 255.545L1388.88 255.545L1390 259Z" fill="#FCF9BF"/>
<path d="M572 10.0002L573.123 6.54527L576.756 6.54527L573.817 4.41001L574.939 0.955099L572 3.09035L569.062 0.955098L570.184 4.41001L567.245 6.54527L570.878 6.54527L572 10.0002Z" fill="#FCF9BF"/>
<path d="M1127 181L1128.12 177.545L1131.76 177.545L1128.82 175.41L1129.94 171.955L1127 174.09L1124.06 171.955L1125.18 175.41L1122.24 177.545L1125.88 177.545L1127 181Z" fill="#FCF9BF"/>
<path d="M1410 852L1411.12 848.545L1414.76 848.545L1411.82 846.41L1412.94 842.955L1410 845.09L1407.06 842.955L1408.18 846.41L1405.24 848.545L1408.88 848.545L1410 852Z" fill="#FCF9BF"/>
<path d="M624 662L625.123 658.545L628.755 658.545L625.816 656.41L626.939 652.955L624 655.09L621.061 652.955L622.184 656.41L619.245 658.545L622.877 658.545L624 662Z" fill="#FCF9BF"/>
<path d="M78.0005 114L79.1231 110.545L82.7558 110.545L79.8168 108.41L80.9394 104.955L78.0005 107.09L75.0616 104.955L76.1841 108.41L73.2452 110.545L76.8779 110.545L78.0005 114Z" fill="#FCF9BF"/>
<path d="M1229 421L1230.12 417.545L1233.76 417.545L1230.82 415.41L1231.94 411.955L1229 414.09L1226.06 411.955L1227.18 415.41L1224.24 417.545L1227.88 417.545L1229 421Z" fill="#FCF9BF"/>
<path d="M1153 798L1154.12 794.545L1157.76 794.545L1154.82 792.41L1155.94 788.955L1153 791.09L1150.06 788.955L1151.18 792.41L1148.25 794.545L1151.88 794.545L1153 798Z" fill="#FCF9BF"/>
</svg>
