<svg width="2255" height="862" viewBox="0 0 2255 862" fill="none" xmlns="http://www.w3.org/2000/svg">
<path d="M875 497L873.877 493.545L870.245 493.545L873.184 491.41L872.061 487.955L875 490.09L877.939 487.955L876.816 491.41L879.755 493.545L876.123 493.545L875 497Z" fill="#FCF9BF"/>
<path d="M445.5 862L443.816 856.818L438.367 856.818L442.775 853.615L441.092 848.432L445.5 851.635L449.908 848.432L448.225 853.615L452.633 856.818L447.184 856.818L445.5 862Z" fill="#FCF9BF"/>
<path d="M118 545L116.877 541.545L113.245 541.545L116.184 539.41L115.061 535.955L118 538.09L120.939 535.955L119.816 539.41L122.755 541.545L119.123 541.545L118 545Z" fill="#FCF9BF"/>
<path d="M1410.5 821L1408.82 815.818L1403.37 815.818L1407.78 812.615L1406.09 807.432L1410.5 810.635L1414.91 807.432L1413.22 812.615L1417.63 815.818L1412.18 815.818L1410.5 821Z" fill="#FCF9BF"/>
<path d="M596.5 548L594.816 542.818L589.367 542.818L593.775 539.615L592.092 534.432L596.5 537.635L600.908 534.432L599.225 539.615L603.633 542.818L598.184 542.818L596.5 548Z" fill="#FCF9BF"/>
<path d="M1425.5 505L1423.82 499.818L1418.37 499.818L1422.78 496.615L1421.09 491.432L1425.5 494.635L1429.91 491.432L1428.22 496.615L1432.63 499.818L1427.18 499.818L1425.5 505Z" fill="#FCF9BF"/>
<path d="M2028.5 426L2026.82 420.818L2021.37 420.818L2025.78 417.615L2024.09 412.432L2028.5 415.635L2032.91 412.432L2031.22 417.615L2035.63 420.818L2030.18 420.818L2028.5 426Z" fill="#FCF9BF"/>
<path d="M5 842L3.87743 838.545L0.244718 838.545L3.18364 836.41L2.06107 832.955L5 835.09L7.93893 832.955L6.81636 836.41L9.75528 838.545L6.12257 838.545L5 842Z" fill="#FCF9BF"/>
<path d="M503 30L501.877 26.5451L498.245 26.5451L501.184 24.4098L500.061 20.9549L503 23.0901L505.939 20.9549L504.816 24.4098L507.755 26.5451L504.123 26.5451L503 30Z" fill="#FCF9BF"/>
<path d="M958 20L956.877 16.5451L953.245 16.5451L956.184 14.4098L955.061 10.9549L958 13.0902L960.939 10.9549L959.816 14.4098L962.755 16.5451L959.123 16.5451L958 20Z" fill="#FCF9BF"/>
<path d="M1346 269L1344.88 265.545L1341.24 265.545L1344.18 263.41L1343.06 259.955L1346 262.09L1348.94 259.955L1347.82 263.41L1350.76 265.545L1347.12 265.545L1346 269Z" fill="#FCF9BF"/>
<path d="M1336 15L1334.88 11.5451L1331.24 11.5451L1334.18 9.40986L1333.06 5.95494L1336 8.0902L1338.94 5.95495L1337.82 9.40986L1340.76 11.5451L1337.12 11.5451L1336 15Z" fill="#FCF9BF"/>
<path d="M1621 293L1619.88 289.545L1616.24 289.545L1619.18 287.41L1618.06 283.955L1621 286.09L1623.94 283.955L1622.82 287.41L1625.76 289.545L1622.12 289.545L1621 293Z" fill="#FCF9BF"/>
<path d="M2026 754L2024.88 750.545L2021.24 750.545L2024.18 748.41L2023.06 744.955L2026 747.09L2028.94 744.955L2027.82 748.41L2030.76 750.545L2027.12 750.545L2026 754Z" fill="#FCF9BF"/>
<path d="M1869 114L1867.88 110.545L1864.24 110.545L1867.18 108.41L1866.06 104.955L1869 107.09L1871.94 104.955L1870.82 108.41L1873.76 110.545L1870.12 110.545L1869 114Z" fill="#FCF9BF"/>
<path d="M2250 672L2248.88 668.545L2245.24 668.545L2248.18 666.41L2247.06 662.955L2250 665.09L2252.94 662.955L2251.82 666.41L2254.76 668.545L2251.12 668.545L2250 672Z" fill="#FCF9BF"/>
<path d="M265 67L263.877 63.545L260.245 63.545L263.184 61.4098L262.061 57.9549L265 60.0901L267.939 57.9549L266.816 61.4098L269.755 63.545L266.123 63.545L265 67Z" fill="#FCF9BF"/>
<path d="M386 337L384.877 333.545L381.245 333.545L384.184 331.41L383.061 327.955L386 330.09L388.939 327.955L387.816 331.41L390.755 333.545L387.123 333.545L386 337Z" fill="#FCF9BF"/>
<path d="M865 259L863.877 255.545L860.245 255.545L863.184 253.41L862.061 249.955L865 252.09L867.939 249.955L866.816 253.41L869.755 255.545L866.123 255.545L865 259Z" fill="#FCF9BF"/>
<path d="M1683 10.0001L1681.88 6.54515L1678.24 6.54515L1681.18 4.40989L1680.06 0.954975L1683 3.09023L1685.94 0.954976L1684.82 4.40989L1687.76 6.54515L1684.12 6.54515L1683 10.0001Z" fill="#FCF9BF"/>
<path d="M1128 181L1126.88 177.545L1123.24 177.545L1126.18 175.41L1125.06 171.955L1128 174.09L1130.94 171.955L1129.82 175.41L1132.76 177.545L1129.12 177.545L1128 181Z" fill="#FCF9BF"/>
<path d="M845 852L843.877 848.545L840.245 848.545L843.184 846.41L842.061 842.955L845 845.09L847.939 842.955L846.816 846.41L849.755 848.545L846.123 848.545L845 852Z" fill="#FCF9BF"/>
<path d="M1631 662L1629.88 658.545L1626.24 658.545L1629.18 656.41L1628.06 652.955L1631 655.09L1633.94 652.955L1632.82 656.41L1635.76 658.545L1632.12 658.545L1631 662Z" fill="#FCF9BF"/>
<path d="M2177 114L2175.88 110.545L2172.24 110.545L2175.18 108.41L2174.06 104.955L2177 107.09L2179.94 104.955L2178.82 108.41L2181.76 110.545L2178.12 110.545L2177 114Z" fill="#FCF9BF"/>
<path d="M1026 421L1024.88 417.545L1021.24 417.545L1024.18 415.41L1023.06 411.955L1026 414.09L1028.94 411.955L1027.82 415.41L1030.76 417.545L1027.12 417.545L1026 421Z" fill="#FCF9BF"/>
<path d="M1102 798L1100.88 794.545L1097.24 794.545L1100.18 792.41L1099.06 788.955L1102 791.09L1104.94 788.955L1103.82 792.41L1106.76 794.545L1103.12 794.545L1102 798Z" fill="#FCF9BF"/>
</svg>
