<svg width="2255" height="862" viewBox="0 0 2255 862" fill="none" xmlns="http://www.w3.org/2000/svg">
<path d="M875 365L873.878 368.455L870.245 368.455L873.184 370.59L872.062 374.045L875 371.91L877.939 374.045L876.817 370.59L879.756 368.455L876.123 368.455L875 365Z" fill="#FCF9BF"/>
<path d="M445.5 2.98619e-05L443.816 5.1824L438.367 5.1824L442.775 8.38528L441.092 13.5677L445.5 10.3648L449.908 13.5677L448.225 8.38528L452.633 5.1824L447.184 5.1824L445.5 2.98619e-05Z" fill="#FCF9BF"/>
<path d="M118 317L116.877 320.455L113.245 320.455L116.184 322.59L115.061 326.045L118 323.91L120.939 326.045L119.816 322.59L122.755 320.455L119.123 320.455L118 317Z" fill="#FCF9BF"/>
<path d="M1410.5 41.0001L1408.82 46.1825L1403.37 46.1825L1407.78 49.3853L1406.09 54.5677L1410.5 51.3648L1414.91 54.5677L1413.22 49.3853L1417.63 46.1825L1412.18 46.1825L1410.5 41.0001Z" fill="#FCF9BF"/>
<path d="M596.5 314L594.816 319.182L589.367 319.182L593.775 322.385L592.091 327.568L596.5 324.365L600.908 327.568L599.224 322.385L603.632 319.182L598.183 319.182L596.5 314Z" fill="#FCF9BF"/>
<path d="M1425.5 357L1423.82 362.182L1418.37 362.182L1422.77 365.385L1421.09 370.568L1425.5 367.365L1429.91 370.568L1428.22 365.385L1432.63 362.182L1427.18 362.182L1425.5 357Z" fill="#FCF9BF"/>
<path d="M2028.5 436L2026.82 441.183L2021.37 441.183L2025.78 444.385L2024.09 449.568L2028.5 446.365L2032.91 449.568L2031.22 444.385L2035.63 441.183L2030.18 441.183L2028.5 436Z" fill="#FCF9BF"/>
<path d="M5.00049 20L3.87792 23.4549L0.245207 23.4549L3.18413 25.5901L2.06156 29.0451L5.00049 26.9098L7.93941 29.0451L6.81684 25.5901L9.75577 23.4549L6.12306 23.4549L5.00049 20Z" fill="#FCF9BF"/>
<path d="M503 832L501.877 835.455L498.245 835.455L501.184 837.59L500.061 841.045L503 838.91L505.939 841.045L504.816 837.59L507.755 835.455L504.123 835.455L503 832Z" fill="#FCF9BF"/>
<path d="M958 842L956.877 845.455L953.244 845.455L956.183 847.59L955.061 851.045L958 848.91L960.939 851.045L959.816 847.59L962.755 845.455L959.122 845.455L958 842Z" fill="#FCF9BF"/>
<path d="M1346 593L1344.88 596.455L1341.24 596.455L1344.18 598.59L1343.06 602.045L1346 599.91L1348.94 602.045L1347.82 598.59L1350.76 596.455L1347.12 596.455L1346 593Z" fill="#FCF9BF"/>
<path d="M1336 847L1334.88 850.455L1331.24 850.455L1334.18 852.59L1333.06 856.045L1336 853.91L1338.94 856.045L1337.82 852.59L1340.76 850.455L1337.12 850.455L1336 847Z" fill="#FCF9BF"/>
<path d="M1621 569L1619.88 572.455L1616.24 572.455L1619.18 574.59L1618.06 578.045L1621 575.91L1623.94 578.045L1622.82 574.59L1625.76 572.455L1622.12 572.455L1621 569Z" fill="#FCF9BF"/>
<path d="M2026 108L2024.88 111.455L2021.24 111.455L2024.18 113.59L2023.06 117.045L2026 114.91L2028.94 117.045L2027.82 113.59L2030.76 111.455L2027.12 111.455L2026 108Z" fill="#FCF9BF"/>
<path d="M1869 748L1867.88 751.455L1864.24 751.455L1867.18 753.59L1866.06 757.045L1869 754.91L1871.94 757.045L1870.82 753.59L1873.76 751.455L1870.12 751.455L1869 748Z" fill="#FCF9BF"/>
<path d="M2250 190L2248.88 193.455L2245.24 193.455L2248.18 195.59L2247.06 199.045L2250 196.91L2252.94 199.045L2251.82 195.59L2254.76 193.455L2251.12 193.455L2250 190Z" fill="#FCF9BF"/>
<path d="M265 795L263.878 798.455L260.245 798.455L263.184 800.59L262.062 804.045L265 801.91L267.939 804.045L266.817 800.59L269.756 798.455L266.123 798.455L265 795Z" fill="#FCF9BF"/>
<path d="M386 525L384.877 528.455L381.245 528.455L384.184 530.59L383.061 534.045L386 531.91L388.939 534.045L387.816 530.59L390.755 528.455L387.123 528.455L386 525Z" fill="#FCF9BF"/>
<path d="M865 603L863.877 606.455L860.244 606.455L863.183 608.59L862.061 612.045L865 609.91L867.939 612.045L866.816 608.59L869.755 606.455L866.122 606.455L865 603Z" fill="#FCF9BF"/>
<path d="M1683 852L1681.88 855.455L1678.24 855.455L1681.18 857.59L1680.06 861.045L1683 858.91L1685.94 861.045L1684.82 857.59L1687.75 855.455L1684.12 855.455L1683 852Z" fill="#FCF9BF"/>
<path d="M1128 681L1126.88 684.455L1123.24 684.455L1126.18 686.59L1125.06 690.045L1128 687.91L1130.94 690.045L1129.82 686.59L1132.76 684.455L1129.12 684.455L1128 681Z" fill="#FCF9BF"/>
<path d="M845 10.0001L843.877 13.455L840.245 13.455L843.184 15.5902L842.061 19.0451L845 16.9099L847.939 19.0451L846.816 15.5902L849.755 13.455L846.123 13.455L845 10.0001Z" fill="#FCF9BF"/>
<path d="M1631 200L1629.88 203.455L1626.24 203.455L1629.18 205.59L1628.06 209.045L1631 206.91L1633.94 209.045L1632.82 205.59L1635.76 203.455L1632.12 203.455L1631 200Z" fill="#FCF9BF"/>
<path d="M2177 748L2175.88 751.455L2172.24 751.455L2175.18 753.59L2174.06 757.045L2177 754.91L2179.94 757.045L2178.82 753.59L2181.75 751.455L2178.12 751.455L2177 748Z" fill="#FCF9BF"/>
<path d="M1026 441L1024.88 444.455L1021.24 444.455L1024.18 446.59L1023.06 450.045L1026 447.91L1028.94 450.045L1027.82 446.59L1030.76 444.455L1027.12 444.455L1026 441Z" fill="#FCF9BF"/>
<path d="M1102 64.0001L1100.88 67.455L1097.24 67.455L1100.18 69.5902L1099.06 73.0451L1102 70.9099L1104.94 73.0451L1103.82 69.5902L1106.75 67.455L1103.12 67.455L1102 64.0001Z" fill="#FCF9BF"/>
</svg>
